<svg width="434" height="434" viewBox="0 0 434 434" fill="none" xmlns="http://www.w3.org/2000/svg">
<mask id="path-1-inside-1_0:1" fill="white">
<path d="M0 100C0 44.7715 44.7715 0 100 0H424C429.523 0 434 4.47715 434 10V334C434 389.228 389.228 434 334 434H10C4.47716 434 0 429.523 0 424V100Z"/>
</mask>
<path d="M0 100C0 44.7715 44.7715 0 100 0H424C429.523 0 434 4.47715 434 10V334C434 389.228 389.228 434 334 434H10C4.47716 434 0 429.523 0 424V100Z" fill="white" stroke="#2AE026" stroke-width="50" mask="url(#path-1-inside-1_0:1)"/>
<circle cx="217" cy="95" r="23" fill="white"/>
<circle cx="217" cy="95" r="23" stroke="#2AE026" stroke-width="14"/>
<circle cx="217" cy="95" r="23" stroke="#2AE026" stroke-opacity="0.2" stroke-width="14"/>
<g filter="url(#filter0_d_0:1)">
<rect x="198" y="117" width="37" height="198" fill="#2AE026"/>
<rect x="199.5" y="118.5" width="34" height="195" stroke="#2AE026" stroke-width="3"/>
</g>
<circle cx="217" cy="338" r="23" fill="white"/>
<circle cx="217" cy="338" r="23" stroke="#2AE026" stroke-width="14"/>
<circle cx="217" cy="338" r="23" stroke="#2AE026" stroke-opacity="0.2" stroke-width="14"/>
<circle cx="353" cy="278" r="23" fill="white"/>
<circle cx="353" cy="278" r="23" stroke="#2AE026" stroke-width="14"/>
<circle cx="353" cy="278" r="23" stroke="#2AE026" stroke-opacity="0.2" stroke-width="14"/>
<rect x="334" y="301" width="37" height="124" fill="#2AE026"/>
<rect x="79" y="1" width="37" height="134" fill="#2AE026"/>
<circle cx="98" cy="158" r="23" fill="white"/>
<circle cx="98" cy="158" r="23" stroke="#2AE026" stroke-width="14"/>
<circle cx="98" cy="158" r="23" stroke="#2AE026" stroke-opacity="0.2" stroke-width="14"/>
<defs>
<filter id="filter0_d_0:1" x="194" y="117" width="45" height="206" filterUnits="userSpaceOnUse" color-interpolation-filters="sRGB">
<feFlood flood-opacity="0" result="BackgroundImageFix"/>
<feColorMatrix in="SourceAlpha" type="matrix" values="0 0 0 0 0 0 0 0 0 0 0 0 0 0 0 0 0 0 127 0" result="hardAlpha"/>
<feOffset dy="4"/>
<feGaussianBlur stdDeviation="2"/>
<feComposite in2="hardAlpha" operator="out"/>
<feColorMatrix type="matrix" values="0 0 0 0 0 0 0 0 0 0 0 0 0 0 0 0 0 0 0.25 0"/>
<feBlend mode="normal" in2="BackgroundImageFix" result="effect1_dropShadow_0:1"/>
<feBlend mode="normal" in="SourceGraphic" in2="effect1_dropShadow_0:1" result="shape"/>
</filter>
</defs>
</svg>
